<svg xmlns="http://www.w3.org/2000/svg" width="102" height="42" viewBox="0 0 102 42"><g><g><g><path fill="#349a89" d="M17.034 26.993c-1.363 1.77-3.477 2.908-5.858 2.908h-.026c-2.394 0-4.52-1.163-5.87-2.946l5.883-5.945z"/></g><g><g><path fill="#fff" d="M52.06 3.394c0 .736.267 1.383.79 1.912.534.53 1.158.802 1.884.802s1.363-.272 1.885-.802.79-1.176.79-1.912c0-.737-.268-1.383-.79-1.913S55.46.68 54.734.68s-1.362.271-1.884.801a2.647 2.647 0 0 0-.79 1.913zm.611 26.841c0 .594.191 1.098.586 1.5.395.4.891.594 1.477.594.624 0 1.12-.194 1.503-.595.382-.388.573-.892.573-1.499v-18.35c0-.634-.191-1.138-.573-1.526-.382-.387-.879-.581-1.503-.581-.586 0-1.082.194-1.477.581-.395.388-.586.892-.586 1.525z"/></g><g><path fill="#fff" d="M79.317 30.605c0 .608-.242 1.112-.726 1.525-.408.336-.84.491-1.3.491-.598 0-1.082-.245-1.464-.736l-7.717-9.692-2.037 1.809v6.306c0 .608-.178 1.099-.548 1.46-.369.375-.853.556-1.438.556-.599 0-1.083-.18-1.44-.555-.369-.375-.547-.853-.547-1.46V2.135c0-.607.178-1.098.548-1.46.369-.375.84-.556 1.439-.556.598 0 1.082.18 1.438.556.37.374.548.866.548 1.46v16.787l9.869-8.943a1.7 1.7 0 0 1 1.26-.53c.574 0 1.032.22 1.389.66.356.361.522.788.522 1.279 0 .581-.217 1.047-.65 1.408l-7.475 6.76 7.883 9.82c.293.324.446.737.446 1.228z"/></g><g><path fill="#fff" d="M96.575 11.09c1.693.97 3.017 2.326 3.985 4.058.955 1.732 1.44 3.71 1.44 5.945 0 2.197-.485 4.161-1.427 5.893a10.213 10.213 0 0 1-3.96 4.058c-1.694.969-3.63 1.46-5.794 1.46-2.165 0-4.1-.478-5.807-1.46a10.193 10.193 0 0 1-3.986-4.058c-.955-1.732-1.426-3.696-1.426-5.893 0-2.236.484-4.213 1.426-5.945a10.36 10.36 0 0 1 3.986-4.058c1.706-.969 3.642-1.46 5.807-1.46 2.14 0 4.062.491 5.756 1.46zm-13.639 9.964c0 4.42 3.528 7.987 7.87 7.987 4.342 0 7.857-3.567 7.87-7.987 0-4.42-3.528-7.986-7.87-7.986-4.355 0-7.87 3.58-7.87 7.986z"/></g><g><path fill="#fff" d="M43.094 11.09c1.694.97 3.018 2.326 3.986 4.058.955 1.732 1.44 3.71 1.426 5.945 0 2.197-.483 4.161-1.426 5.893a10.214 10.214 0 0 1-3.96 4.058c-1.694.969-3.63 1.46-5.794 1.46-2.165 0-4.1-.478-5.807-1.46a9.334 9.334 0 0 1-1.26-.84v9.692c0 .633-.191 1.137-.573 1.525-.382.387-.88.581-1.503.581-.586 0-1.082-.194-1.477-.581-.395-.388-.586-.892-.586-1.525V21.093c0-2.236.484-4.213 1.426-5.945a10.36 10.36 0 0 1 3.986-4.058c1.464-.84 3.12-1.318 4.94-1.434h.103c.229-.013.484-.026.725-.026h.039c2.14 0 4.062.491 5.755 1.46zm-13.638 9.964c0 4.42 3.528 7.987 7.87 7.987 4.342 0 7.87-3.567 7.87-7.987s-3.528-7.986-7.87-7.986c-4.355 0-7.87 3.58-7.87 7.986z"/></g><g><path fill="#fff" d="M16.885 11.13c1.694 1.007 3.031 2.377 4.024 4.122.994 1.744 1.478 3.683 1.465 5.828v9.201c0 .594-.191 1.098-.586 1.5-.382.4-.879.594-1.477.594-.586 0-1.082-.194-1.477-.595-.395-.388-.586-.892-.586-1.499v-.078c-.382.31-.802.582-1.235.84-1.694.97-3.63 1.46-5.794 1.46-2.165 0-4.1-.477-5.807-1.46a10.193 10.193 0 0 1-3.986-4.057c-.006-.007-.01-.017-.013-.026-.003-.01-.006-.02-.012-.026l-.038-.013a12.09 12.09 0 0 1-.88-2.249c-.018-.077-.037-.151-.056-.226l-.058-.226-.019-.09a4.313 4.313 0 0 1-.019-.09c-.05-.195-.089-.401-.127-.608a.163.163 0 0 0-.007-.039.165.165 0 0 1-.006-.039c-.038-.232-.076-.465-.102-.697v-.026c-.025-.246-.05-.491-.064-.75v-.013C.013 21.61 0 21.338 0 21.08c0-2.145.484-4.084 1.464-5.828a10.867 10.867 0 0 1 4.05-4.123c1.719-.995 3.616-1.499 5.705-1.499 2.088 0 3.973.491 5.666 1.5zM3.324 21.053c0 4.42 3.527 7.987 7.87 7.987 4.342 0 7.869-3.567 7.869-7.987s-3.515-7.986-7.87-7.986-7.87 3.58-7.87 7.986z"/></g></g></g></g></svg>