<svg xmlns="http://www.w3.org/2000/svg" width="24" height="14" viewBox="0 0 24 14"><g><g><path d="M12.003-.05c4.607 0 8.852 2.316 11.352 6.195.336.52.336 1.192 0 1.713a13.458 13.458 0 0 1-11.352 6.194A13.46 13.46 0 0 1 .651 7.858a1.586 1.586 0 0 1 0-1.713A13.458 13.458 0 0 1 12.003-.05zm0 12.902c4.198 0 8.065-2.11 10.344-5.645a.388.388 0 0 0 0-.412A12.264 12.264 0 0 0 12.003 1.15 12.26 12.26 0 0 0 1.66 6.795a.384.384 0 0 0 0 .412 12.26 12.26 0 0 0 10.343 5.645zm3.6-5.851c0 1.985-1.615 3.6-3.6 3.6a3.604 3.604 0 0 1-3.6-3.6c0-1.985 1.615-3.6 3.6-3.6s3.6 1.615 3.6 3.6zm-6 0c0 1.323 1.077 2.4 2.4 2.4s2.4-1.077 2.4-2.4-1.077-2.4-2.4-2.4a2.403 2.403 0 0 0-2.4 2.4z"/></g></g></svg>