<svg xmlns="http://www.w3.org/2000/svg" width="17" height="15" viewBox="0 0 17 15"><g><g><path fill="#b7b7b7" d="M8.5 1.18c2.033-1.67 5.075-1.567 6.984.305A4.996 4.996 0 0 1 17 5.078a4.995 4.995 0 0 1-1.516 3.593l-6.077 5.96c-.25.246-.579.369-.907.369-.328 0-.657-.123-.907-.368L1.516 8.67A4.996 4.996 0 0 1 0 5.078C0 3.72.538 2.445 1.516 1.485 3.426-.387 6.468-.489 8.5 1.18zm6.304 6.823a4.066 4.066 0 0 0 1.234-2.925 4.067 4.067 0 0 0-1.234-2.925c-1.645-1.612-4.32-1.612-5.964 0a.489.489 0 0 1-.68 0A4.243 4.243 0 0 0 5.177.943c-1.08 0-2.16.404-2.982 1.21A4.069 4.069 0 0 0 .962 5.078c0 1.105.438 2.144 1.234 2.925l6.077 5.961a.325.325 0 0 0 .453 0z"/></g></g></svg>